<svg width="954" height="683" fill="none" xmlns="http://www.w3.org/2000/svg"><circle cx="495.455" cy="74.454" r="5.455" fill="#4969F8"/><circle cx="495.455" cy="205.364" r="5.455" fill="#4969F8"/><circle cx="495.455" cy="139.909" r="5.455" fill="#4969F8"/><circle cx="495.455" cy="270.818" r="5.455" fill="#4969F8"/><circle cx="495.455" cy="336.455" r="5.455" fill="#4969F8"/><circle cx="495.455" cy="107.182" r="5.455" fill="#4969F8"/><circle cx="495.455" cy="238.091" r="5.455" fill="#4969F8"/><circle cx="495.455" cy="172.636" r="5.455" fill="#4969F8"/><circle cx="495.455" cy="303.546" r="5.455" fill="#4969F8"/><circle cx="495.455" cy="369.182" r="5.455" fill="#4969F8"/><circle cx="626.364" cy="74.454" r="5.455" fill="#4969F8"/><circle cx="626.364" cy="205.364" r="5.455" fill="#4969F8"/><circle cx="626.364" cy="139.909" r="5.455" fill="#4969F8"/><circle cx="626.364" cy="270.818" r="5.455" fill="#4969F8"/><circle cx="626.364" cy="336.455" r="5.455" fill="#4969F8"/><circle cx="626.364" cy="107.182" r="5.455" fill="#4969F8"/><circle cx="626.364" cy="238.091" r="5.455" fill="#4969F8"/><circle cx="626.364" cy="172.636" r="5.455" fill="#4969F8"/><circle cx="626.364" cy="303.546" r="5.455" fill="#4969F8"/><circle cx="626.364" cy="369.182" r="5.455" fill="#4969F8"/><circle cx="560.909" cy="74.454" r="5.455" fill="#4969F8"/><circle cx="560.909" cy="205.364" r="5.455" fill="#4969F8"/><circle cx="560.909" cy="139.909" r="5.455" fill="#4969F8"/><circle cx="560.909" cy="270.818" r="5.455" fill="#4969F8"/><circle cx="560.909" cy="336.455" r="5.455" fill="#4969F8"/><circle cx="560.909" cy="107.182" r="5.455" fill="#4969F8"/><circle cx="560.909" cy="238.091" r="5.455" fill="#4969F8"/><circle cx="560.909" cy="172.636" r="5.455" fill="#4969F8"/><circle cx="560.909" cy="303.546" r="5.455" fill="#4969F8"/><circle cx="560.909" cy="369.182" r="5.455" fill="#4969F8"/><circle cx="528.182" cy="74.454" r="5.455" fill="#4969F8"/><circle cx="528.182" cy="205.364" r="5.455" fill="#4969F8"/><circle cx="528.182" cy="139.909" r="5.455" fill="#4969F8"/><circle cx="528.182" cy="270.818" r="5.455" fill="#4969F8"/><circle cx="528.182" cy="336.455" r="5.455" fill="#4969F8"/><circle cx="528.182" cy="107.182" r="5.455" fill="#4969F8"/><circle cx="528.182" cy="238.091" r="5.455" fill="#4969F8"/><circle cx="528.182" cy="172.636" r="5.455" fill="#4969F8"/><circle cx="528.182" cy="303.546" r="5.455" fill="#4969F8"/><circle cx="528.182" cy="369.182" r="5.455" fill="#4969F8"/><circle cx="659.091" cy="74.454" r="5.455" fill="#4969F8"/><circle cx="659.091" cy="205.364" r="5.455" fill="#4969F8"/><circle cx="659.091" cy="139.909" r="5.455" fill="#4969F8"/><circle cx="659.091" cy="270.818" r="5.455" fill="#4969F8"/><circle cx="659.091" cy="336.455" r="5.455" fill="#4969F8"/><circle cx="659.091" cy="107.182" r="5.455" fill="#4969F8"/><circle cx="659.091" cy="238.091" r="5.455" fill="#4969F8"/><circle cx="659.091" cy="172.636" r="5.455" fill="#4969F8"/><circle cx="659.091" cy="303.546" r="5.455" fill="#4969F8"/><circle cx="659.091" cy="369.182" r="5.455" fill="#4969F8"/><circle cx="593.636" cy="74.454" r="5.455" fill="#4969F8"/><circle cx="593.636" cy="205.364" r="5.455" fill="#4969F8"/><circle cx="593.636" cy="139.909" r="5.455" fill="#4969F8"/><circle cx="593.636" cy="270.818" r="5.455" fill="#4969F8"/><circle cx="593.636" cy="336.455" r="5.455" fill="#4969F8"/><circle cx="593.636" cy="107.182" r="5.455" fill="#4969F8"/><circle cx="593.636" cy="238.091" r="5.455" fill="#4969F8"/><circle cx="593.636" cy="172.636" r="5.455" fill="#4969F8"/><circle cx="593.636" cy="303.546" r="5.455" fill="#4969F8"/><circle cx="593.636" cy="369.182" r="5.455" fill="#4969F8"/><circle cx="5.455" cy="380.455" r="5.455" fill="#21D8E3"/><circle cx="5.455" cy="511.364" r="5.455" fill="#21D8E3"/><circle cx="5.455" cy="445.909" r="5.455" fill="#21D8E3"/><circle cx="5.455" cy="576.818" r="5.455" fill="#21D8E3"/><circle cx="5.455" cy="413.182" r="5.455" fill="#21D8E3"/><circle cx="5.455" cy="544.091" r="5.455" fill="#21D8E3"/><circle cx="5.455" cy="478.636" r="5.455" fill="#21D8E3"/><circle cx="5.455" cy="609.545" r="5.455" fill="#21D8E3"/><circle cx="136.364" cy="380.455" r="5.455" fill="#21D8E3"/><circle cx="136.364" cy="511.364" r="5.455" fill="#21D8E3"/><circle cx="136.364" cy="445.909" r="5.455" fill="#21D8E3"/><circle cx="136.364" cy="576.818" r="5.455" fill="#21D8E3"/><circle cx="136.364" cy="413.182" r="5.455" fill="#21D8E3"/><circle cx="136.364" cy="544.091" r="5.455" fill="#21D8E3"/><circle cx="136.364" cy="478.636" r="5.455" fill="#21D8E3"/><circle cx="136.364" cy="609.545" r="5.455" fill="#21D8E3"/><circle cx="70.909" cy="380.455" r="5.455" fill="#21D8E3"/><circle cx="70.909" cy="511.364" r="5.455" fill="#21D8E3"/><circle cx="70.909" cy="445.909" r="5.455" fill="#21D8E3"/><circle cx="70.909" cy="576.818" r="5.455" fill="#21D8E3"/><circle cx="70.909" cy="413.182" r="5.455" fill="#21D8E3"/><circle cx="70.909" cy="544.091" r="5.455" fill="#21D8E3"/><circle cx="70.909" cy="478.636" r="5.455" fill="#21D8E3"/><circle cx="70.909" cy="609.545" r="5.455" fill="#21D8E3"/><circle cx="201.818" cy="380.455" r="5.455" fill="#21D8E3"/><circle cx="201.818" cy="511.364" r="5.455" fill="#21D8E3"/><circle cx="201.818" cy="445.909" r="5.455" fill="#21D8E3"/><circle cx="201.818" cy="576.818" r="5.455" fill="#21D8E3"/><circle cx="201.818" cy="413.182" r="5.455" fill="#21D8E3"/><circle cx="201.818" cy="544.091" r="5.455" fill="#21D8E3"/><circle cx="201.818" cy="478.636" r="5.455" fill="#21D8E3"/><circle cx="201.818" cy="609.545" r="5.455" fill="#21D8E3"/><circle cx="38.182" cy="380.455" r="5.455" fill="#21D8E3"/><circle cx="38.182" cy="511.364" r="5.455" fill="#21D8E3"/><circle cx="38.182" cy="445.909" r="5.455" fill="#21D8E3"/><circle cx="38.182" cy="576.818" r="5.455" fill="#21D8E3"/><circle cx="38.182" cy="413.182" r="5.455" fill="#21D8E3"/><circle cx="38.182" cy="544.091" r="5.455" fill="#21D8E3"/><circle cx="38.182" cy="478.636" r="5.455" fill="#21D8E3"/><circle cx="38.182" cy="609.545" r="5.455" fill="#21D8E3"/><circle cx="169.091" cy="380.455" r="5.455" fill="#21D8E3"/><circle cx="169.091" cy="511.364" r="5.455" fill="#21D8E3"/><circle cx="169.091" cy="445.909" r="5.455" fill="#21D8E3"/><circle cx="169.091" cy="576.818" r="5.455" fill="#21D8E3"/><circle cx="169.091" cy="413.182" r="5.455" fill="#21D8E3"/><circle cx="169.091" cy="544.091" r="5.455" fill="#21D8E3"/><circle cx="169.091" cy="478.636" r="5.455" fill="#21D8E3"/><circle cx="169.091" cy="609.545" r="5.455" fill="#21D8E3"/><circle cx="103.636" cy="380.455" r="5.455" fill="#21D8E3"/><circle cx="103.636" cy="511.364" r="5.455" fill="#21D8E3"/><circle cx="103.636" cy="445.909" r="5.455" fill="#21D8E3"/><circle cx="103.636" cy="576.818" r="5.455" fill="#21D8E3"/><circle cx="103.636" cy="413.182" r="5.455" fill="#21D8E3"/><circle cx="103.636" cy="544.091" r="5.455" fill="#21D8E3"/><circle cx="103.636" cy="478.636" r="5.455" fill="#21D8E3"/><circle cx="103.636" cy="609.545" r="5.455" fill="#21D8E3"/><circle cx="234.545" cy="380.455" r="5.455" fill="#21D8E3"/><circle cx="234.545" cy="511.364" r="5.455" fill="#21D8E3"/><circle cx="234.545" cy="445.909" r="5.455" fill="#21D8E3"/><circle cx="234.545" cy="576.818" r="5.455" fill="#21D8E3"/><circle cx="234.545" cy="413.182" r="5.455" fill="#21D8E3"/><circle cx="234.545" cy="544.091" r="5.455" fill="#21D8E3"/><circle cx="234.545" cy="478.636" r="5.455" fill="#21D8E3"/><circle cx="234.545" cy="609.545" r="5.455" fill="#21D8E3"/><path fill="#FD3E98" fill-opacity=".2" d="M160 348h863v335H160z"/><rect x="660.426" y="121.477" width="95.302" height="95.302" rx="15" transform="rotate(11.468 660.426 121.477)" fill="#53EDD1"/><path d="M693.643 199.765c11.908 2.415 23.52-5.279 25.935-17.187 2.416-11.908-5.279-23.519-17.186-25.935-11.908-2.416-23.519 5.279-25.935 17.187-2.416 11.908 5.279 23.519 17.186 25.935z" stroke="#fff" stroke-width="6" stroke-linecap="round" stroke-linejoin="round"/><path d="M700.642 165.268l-2.624 12.936 7.749 6.062" stroke="#fff" stroke-width="6" stroke-linecap="round" stroke-linejoin="round"/><rect x="35.142" y="108.029" width="95.302" height="95.302" rx="15" transform="rotate(-17.015 35.142 108.029)" fill="#FF0076"/><path d="M104.543 112.146c2.701-1.984 6.498.033 6.365 3.382l-1.814 45.666c-.144 3.62-4.641 5.199-7.017 2.464l-11.912-13.714a4 4 0 00-2.536-1.348l-18.031-2.197c-3.596-.438-4.804-5.049-1.885-7.194l36.83-27.059z" fill="#fff"/><rect x="582.89" y=".301" width="39" height="39" rx="5" transform="rotate(26.807 582.89 .301)" fill="#21D8E3"/><rect x="575.716" y="486.068" width="95.302" height="95.302" rx="15" transform="rotate(-11.103 575.716 486.068)" fill="#FFCF4F"/><path d="M626.77 534.637c9.01-1.768 14.881-10.506 13.113-19.516-1.768-9.01-10.506-14.881-19.516-13.113-9.011 1.768-14.881 10.506-13.113 19.516 1.768 9.011 10.506 14.881 19.516 13.113zm32.172 7.453l-20.388-13.699" stroke="#fff" stroke-width="6" stroke-linecap="round" stroke-linejoin="round"/></svg>