<svg width="178" height="50" fill="none" xmlns="http://www.w3.org/2000/svg"><rect x="18.474" y="46.725" width="48.1" height="8.258" rx="4.129" transform="rotate(-72.662 18.474 46.725)" fill="#53EDD1"/><rect x="4.815" y="17.394" width="36.885" height="8.258" rx="4.129" transform="rotate(-28.136 4.815 17.394)" fill="#FF0076"/><rect y="36.733" width="64.038" height="8.258" rx="4.129" transform="rotate(-28.136 0 36.733)" fill="#4969F8"/><rect x="18.028" y="42.718" width="36.885" height="8.258" rx="4.129" transform="rotate(-28.136 18.028 42.718)" fill="#FFCF4F"/><path d="M90.472 13.536H74.6v4.48h9.6L74.6 31.84V36h15.872v-4.48h-9.664l9.664-13.824v-4.16zm11.447 8.736c1.824 0 3.36 1.12 3.36 3.072H98.43c.32-1.984 1.697-3.072 3.489-3.072zm8.544 7.808h-5.824c-.448.96-1.312 1.728-2.848 1.728-1.76 0-3.2-1.088-3.392-3.424h12.384c.064-.544.095-1.088.095-1.6 0-5.44-3.679-8.896-8.895-8.896-5.313 0-9.025 3.52-9.025 9.184s3.776 9.184 9.025 9.184c4.448 0 7.616-2.688 8.48-6.176zM126.085 36h5.44V25.568c0-4.8-2.752-7.616-6.88-7.616-2.4 0-4.32 1.056-5.408 2.56v-2.368h-5.472V36h5.472v-9.696c0-2.432 1.344-3.776 3.424-3.776s3.424 1.344 3.424 3.776V36zm8.155-8.96c0 5.632 3.488 9.216 7.872 9.216 2.624 0 4.512-1.184 5.504-2.816V36h5.472V12.32h-5.472v8.288c-1.088-1.632-3.136-2.72-5.504-2.72-4.384 0-7.872 3.52-7.872 9.152zm13.376.032c0 2.848-1.824 4.416-3.904 4.416-2.048 0-3.904-1.6-3.904-4.448 0-2.848 1.856-4.384 3.904-4.384 2.08 0 3.904 1.568 3.904 4.416zM157.047 36h5.472V18.144h-5.472V36zm2.752-19.712c1.92 0 3.232-1.312 3.232-2.944 0-1.664-1.312-2.976-3.232-2.976-1.952 0-3.264 1.312-3.264 2.976 0 1.632 1.312 2.944 3.264 2.944zm7.549 13.504c0 4.64 2.592 6.208 6.304 6.208h2.784v-4.64h-1.952c-1.216 0-1.664-.448-1.664-1.504v-7.168h3.584v-4.544h-3.584v-4.352h-5.472v4.352h-2.176v4.544h2.176v7.104z" fill="#172F53"/></svg>